<?xml version="1.0"?>
<svg xmlns:rdf="http://www.w3.org/1999/02/22-rdf-syntax-ns#" xmlns="http://www.w3.org/2000/svg" xmlns:cc="http://creativecommons.org/ns#" xmlns:dc="http://purl.org/dc/elements/1.1/" xmlns:svg="http://www.w3.org/2000/svg" id="svg1291" viewBox="0 0 29.729 20.832" version="1.0" y="0" x="0">
  <g id="g1395" transform="matrix(.061378 0 0 .063103 -3.5822 -19.453)">
    <path id="path1346" fill="#fcfcfd" d="m105.38 499.56l-43.115-133.43 165.22-56.7 43.37 2.35 29.79 5.15 7.76 40.77 214.07 27.77 14.45 12.31-0.08 48.39-9.45 70.41-19.29 85.41-20.69 12.78-41.32-10.65-11.79 14.65-19.84 12.71-19.85 3.81-18.9 0.05-20.31-6.03-17.5-9.31-13.28-12.6-2.5-10.72 16.4-31.98-61.86-19.8-81.66 64.19-66.66-30.45-22.96-79.08z"/>
    <path id="path1344" fill="#d2d2d2" d="m366.29 636.36c-13.57-3.29-25.72-9.25-34.77-17.06-10.02-8.64-12.16-13.55-11.33-26.02 0.55-8.34 1.56-11.04 6.67-17.85l6.01-8.03-4.46-1.66c-2.45-0.91-14.95-5.38-27.78-9.94l-23.32-8.29-10.75 8.81c-5.92 4.85-23.58 19.44-39.25 32.43-20.87 17.3-29.61 23.62-32.66 23.62-2.3 0-18.6-7.02-36.22-15.58l-32.06-15.58-5.68-16.56c-11.85-34.52-62.327-192.67-62.327-195.29 0-1.5 1.271-3.81 2.825-5.13 1.554-1.31 38.746-14.31 82.652-28.89l79.82-26.49 14.63 0.13c26.24 0.22 63.88 3.58 65.33 5.83 0.73 1.13 1.8 7.74 2.39 14.7 0.58 6.95 1.48 15.81 2 19.68l0.93 7.05 30.11 3.49c118.35 13.72 173.5 20.67 181.04 22.81 10.5 3 18.37 9.98 20.84 18.52 3.75 12.97 1.85 36.4-8.06 99.04-6.43 40.7-16.51 89.23-20.83 100.3-1.9 4.86-5.64 10.94-8.31 13.5-6.89 6.62-17.31 6.41-39.75-0.79-9.34-3-17.12-5.27-17.28-5.04-0.16 0.24-1.91 3.01-3.9 6.17-4.58 7.31-13.49 14.09-25.42 19.33-7.78 3.41-12.13 4.19-25.57 4.58-10.43 0.31-19.51-0.33-25.52-1.79zm46.93-6.14c11.14-4.44 7.75-6.14-14.32-7.2-16.55-0.79-22.74-1.82-35.39-5.9-8.44-2.72-19.82-7.34-25.29-10.27-12.33-6.6-14.31-6.75-11.12-0.83 5.29 9.81 23 20.82 41.25 25.65 11.71 3.09 35.4 2.33 44.87-1.45zm75.15-23.95c2.79-1.02 4.96-3.93 7.2-9.68 7.6-19.5 27.23-130.19 32.75-184.64 2.15-21.22 2.3-20.92-12.24-24.95-8.97-2.48-229.65-28.59-241.74-28.59-13.4-0.01-13.23-0.83-12.02 60.88 0.57 29.11 1.8 64.78 2.74 79.26 1.89 29.23 3.71 35.14 12.32 39.89 5.47 3.02 30.32 11.87 119.22 42.51 78.53 27.05 83.35 28.39 91.77 25.32zm-35.33-21.8c-16.9-4.36-153.15-48.81-161.5-52.68-3.96-1.84-8.1-4.85-9.19-6.68-2.57-4.3-2.89-134.55-0.34-139.5 1.05-2.04 3.54-3.38 6.84-3.69 4.72-0.44 52.78 6.39 145.69 20.69 52.51 8.08 54.9 9.43 54.9 31.12 0 26.9-13.84 140.56-18.05 148.24-1.75 3.19-4.51 5.65-6.17 5.5-0.44-0.04-5.93-1.39-12.18-3zm-288.73-55.88c-3.07-11.39-5.18-21.3-4.71-22.04 1.9-2.95 7.72 5.68 12.03 17.85 6.24 17.61 4.7 10.19-10.18-49.08-7.06-28.11-15.13-60.86-17.93-72.78-2.8-11.93-5.12-21.77-5.16-21.88-0.32-0.81-72.68-12.7-73.678-12.11-1.466 0.87 0.317 7.16 11.83 41.73 4.538 13.63 8.529 23.61 8.87 22.18 0.768-3.22 6.397-2.63 27.068 2.85 21.73 5.77 27.76 8.71 30.93 15.1 2.25 4.51 2.38 6.19 0.77 9.58-1.79 3.78-2.5 4.03-8.75 3.11-23.06-3.39-27.71-2.92-21.34 2.15 1.61 1.28 2.43 4.75 2.43 10.26 0 8.28 0.02 8.33 5 8.33 16.5 0 33.35 21.08 43.63 54.59 5.8 18.9 5.3 12.83-0.81-9.84zm-58.53-106.61c-9.888-2.43-19.804-5.57-22.039-6.97-5.718-3.6-8.452-10.41-5.965-14.86 1.782-3.2 2.714-3.38 12.648-2.53 5.898 0.51 16.666 2.7 23.916 4.88 15.34 4.6 21.52 9.97 21.52 18.74 0 5.11-0.22 5.3-6.05 5.23-3.33-0.04-14.15-2.06-24.03-4.49zm22.01-2.51c0-5.61-8.38-9.41-30.381-13.8-14.234-2.84-13.214-2.82-13.214-0.27 0 2.54 7.897 6.01 25.025 10.99 13 3.78 18.57 4.7 18.57 3.08zm3.23-6.87c0-0.85-0.77-1.54-1.71-1.54s-1.26 0.69-0.72 1.54c1.28 1.99 2.43 1.99 2.43 0zm23.27 120.34c-1.4-3.95-5.45-10.17-8.99-13.82-6.8-7.01-6.72-5.67 0.2 3.57 2.29 3.06 5.54 8.47 7.2 12.02 3.95 8.38 4.84 7.38 1.59-1.77zm-18.43-80.79c0-3.17-4.47-5.15-23.23-10.3-18.801-5.15-20.347-5.34-16.938-2.07 2.076 1.99 35.008 14.29 38.958 14.55 0.66 0.05 1.21-0.94 1.21-2.18z"/>
    <path id="path1342" fill="#aaa" d="m375.61 637.61c-8.35-1.06-22.16-5.24-30.14-9.12-26.65-12.95-33.13-34.78-16.53-55.65 2.39-3.01 4.06-5.66 3.71-5.91-0.34-0.24-12.91-4.73-27.92-9.98l-27.3-9.55-13.06 10.58c-7.19 5.81-25.03 20.43-39.64 32.48s-27.96 21.91-29.66 21.91c-2.95 0-52.74-22.98-63.47-29.29-6.05-3.55-6.41-4.57-42.563-117.05-13.411-41.73-25.436-78.97-26.722-82.74-3.263-9.57-3.053-18.22 0.488-20.01 1.554-0.79 39.097-13.49 83.437-28.22l80.61-26.79 37.01 2.27c31.54 1.94 37.31 2.67 39.06 4.96 1.13 1.48 2.53 8.43 3.12 15.44 0.59 7.02 1.48 15.64 1.98 19.16l0.91 6.41 14.77 1.73c135.76 15.86 187.56 22.34 195.36 24.44 17.4 4.69 23.63 14.01 23.65 35.43 0.02 27.74-19.85 149.05-29.14 177.91-2.24 6.95-5.21 12.1-9.42 16.35-5.45 5.5-6.98 6.19-13.68 6.19-4.26 0-15.38-2.43-25.53-5.57-16.89-5.24-18.08-5.41-19.6-2.8-3.2 5.48-14.77 16.4-21.22 20.03-11.77 6.61-31.26 9.58-48.51 7.39zm39.56-8.41c4.88-2.18 11.32-6.16 14.3-8.85 4.49-4.05 5.24-5.62 4.34-9.15-1.57-6.2-6.83-10.31-18.28-14.3l-10.14-3.53-5.35 5.93-5.34 5.94-17.23-6.5c-9.47-3.58-17.78-6.51-18.46-6.51-2.97 0-6.81-6.68-6.81-11.84v-5.61l-7.29 0.96c-14.62 1.92-21.07 8.63-20.72 21.55 0.33 12.39 16.01 26.05 37.85 32.99 16.64 5.28 39.92 4.81 53.13-1.08zm79.2-16.88c1.71-0.88 4.16-3.55 5.46-5.95 6.18-11.47 32.39-166.58 33.61-198.92 0.38-10.11 0.18-10.76-4.69-14.94-3.44-2.95-8.78-5.17-16.46-6.85-11.03-2.4-230.62-28.79-239.67-28.8-2.72 0-6.2 1.61-8.73 4.04l-4.22 4.04 1.04 62.93c1.15 70.08 2.96 98.53 6.72 105.5 3.17 5.88 6.54 7.49 42.75 20.45 45.24 16.18 165.23 58.09 168.83 58.96 5.62 1.37 12.18 1.17 15.36-0.46zm-41.26-30.45c-1.77-0.43-38.33-11.91-81.23-25.52-60.36-19.14-79.13-25.69-82.97-28.98-4.88-4.19-4.97-4.54-6.27-24.28-1.62-24.56-1.83-75.84-0.4-99.54 0.95-15.85 1.38-17.71 4.46-19.05 3.6-1.57 31.25 2.24 125.81 17.34 66.82 10.68 70.03 11.55 73.71 20.08 3.76 8.7-0.49 59.44-10.55 125.92-4.71 31.18-5.93 34.24-13.69 34.57-3.1 0.14-7.09-0.11-8.87-0.54zm-257.51 25.18c0-0.37-2.89-12.04-6.41-25.94-14.36-56.65-43.71-173.6-46.17-183.99-1.45-6.11-2.3-12.79-1.9-14.85 0.6-2.99 0.07-3.74-2.66-3.77-1.87-0.01-18.84-2.67-37.69-5.91-18.856-3.23-35.121-5.39-36.145-4.78-1.308 0.78 5.213 23.15 21.926 75.21 35.939 111.96 41.269 128.01 43.789 131.76 1.28 1.9 4.59 4.58 7.37 5.96l5.05 2.5-3.26-4.41c-5.3-7.16-13.18-25.01-18.25-41.32-5.8-18.69-8.17-46.4-4.38-51.18 6.3-7.94 25.36 4.66 35.6 23.51 8.47 15.58 24.57 65.27 25.68 79.22 0.28 3.56-0.47 5.74-2.36 6.89-2.37 1.43-1.3 2.4 7.31 6.65 9.86 4.86 12.5 5.8 12.5 4.45zm-73.46-150.91c-8-2.37-17.14-5.38-20.32-6.7-6.977-2.89-13.102-9.92-12.45-14.29 0.399-2.68 1.518-3.14 6.934-2.88 9.146 0.44 43.256 11.56 44.176 14.4 0.64 2.01 0.37 2.03-1.98 0.17-1.49-1.19-3.13-1.77-3.63-1.29-0.96 0.93 3.95 3.87 6.64 3.97 1.9 0.08 3.81 6.36 2.79 9.15-1.04 2.83-5.89 2.28-22.16-2.53zm15.33-1.55c0-5.26-10.15-10.03-33.47-15.72-8.93-2.18-11.138-1.63-9.533 2.38 1.16 2.9 8.593 6.14 25.243 10.98 13.28 3.86 17.76 4.46 17.76 2.36zm-22.6-32.06c-20.952-5.32-25.887-7.07-30.568-10.85-5.579-4.5-6.892-12.4-2.342-14.07 5.413-1.99 40.16 6.26 46.66 11.08 2.59 1.92 2.66 2.19 0.38 1.43-1.56-0.52-2.83-0.26-2.83 0.58 0 2.34 4.5 5.39 6.34 4.3 1.93-1.15 4.14 5.97 2.6 8.36-1.43 2.22-9.54 1.89-20.24-0.83zm12.89-3.35c-0.05-6.17-3.02-7.68-24.98-12.68-16.389-3.73-20.2-3.94-20.2-1.1 0 4.9 10.799 9.59 32.47 14.1 13.41 2.79 12.74 2.81 12.71-0.32zm38.19 158.34c1.1-2.75-2.84-19.23-9.33-38.93-3.7-11.25-6.01-15.49-11.22-20.65-11.66-11.52-25.69-14.2-25.69-4.92 0 6.23 9.07 36.34 13.88 46.09 4.29 8.7 8.81 12.62 20.32 17.63 8.44 3.67 10.82 3.83 12.04 0.78z"/>
    <path id="path1340" fill="#919191" d="m369.5 636.31c-21.37-4.08-40.82-15.66-46.52-27.69-5.74-12.12-3.02-26.18 6.97-36.08 3.75-3.72 4.45-5.19 2.74-5.79-1.25-0.44-14.13-4.99-28.62-10.11s-26.61-9.31-26.93-9.31-18.23 14.63-39.8 32.52c-21.56 17.88-40.54 32.52-42.17 32.52-4.7 0-65.94-29.86-68.28-33.3-1.16-1.7-12.04-33.76-24.18-71.23-47.116-145.45-46.017-141.47-39.907-144.57 1.554-0.78 39.077-13.46 83.377-28.16l80.56-26.73 36.97 2.32c22.97 1.44 37.69 3.01 38.87 4.13 1.04 1 2.77 10.58 3.84 21.29 1.08 10.71 2.24 19.75 2.58 20.08 0.35 0.33 33.64 4.44 73.98 9.14 134.13 15.62 139.61 16.46 148.8 22.74 11.17 7.62 13.02 22.83 7.78 64.01-3.79 29.76-13.96 90.63-19.4 116.14-5.76 26.96-9.74 37.81-16.25 44.39-5.2 5.23-6.79 5.94-13.44 5.94-4.26 0-15.38-2.43-25.53-5.57-17.07-5.3-18.06-5.44-19.64-2.73-3.86 6.61-16.11 17.33-24.03 21.01-16 7.44-31.34 8.94-51.77 5.04zm33.51-3.09c5.22-1.31 13.08-4.24 17.46-6.53 7.84-4.1 20.53-16.21 20.53-19.6 0-1.56-36.97-15.9-37.66-14.61-3.58 6.72-6.26 9.9-8.64 10.26-1.62 0.24-10.57-2.32-19.89-5.69-18.02-6.52-22.23-10.1-22.49-19.08-0.1-3.54-1.16-4.49-6.78-6.11-6.57-1.89-6.73-1.84-11.86 3.53-7.93 8.3-11.23 17.91-8.95 26.04 3.84 13.67 24.35 27.28 47.88 31.76 14.81 2.82 19.19 2.83 30.4 0.03zm94.01-20.79c3.9-2.28 5.79-5.03 7.72-11.22 7.13-22.91 31.52-170.6 31.52-190.9 0-15.19-6.35-21.49-25.6-25.41-11.05-2.24-229.73-28.05-237.44-28.02-13.18 0.05-13.92 2.7-13.46 47.98 0.48 48.32 3.39 113.3 5.47 122.34 2.02 8.79 6.03 12.88 16.51 16.84 41.35 15.62 181.71 64.54 196.4 68.44 13.27 3.54 12.75 3.54 18.88-0.05zm-66.51-40.3c-39.32-11.55-133.45-41.9-138.31-44.6-2.36-1.32-5.11-4.1-6.1-6.19-4.67-9.83-6.01-122.71-1.55-130.7 2.49-4.46 11.58-3.62 70.25 6.46 56.65 9.74 75.61 13.61 108.81 22.18 25.85 6.67 25.24 5.74 22.66 34.89-4.14 46.53-14.36 116.37-17.99 122.88-2.41 4.32-9.37 3.42-37.77-4.92zm-234.08 31.33c-4.06-15.34-19-81.78-21.84-97.17-7.04-38.12-5.86-67.49 4.06-100.64 2.04-6.82 4.55-16.38 5.58-21.24 2.92-13.72 12.61-21.25 50.87-39.5 16.9-8.07 29.64-14.34 28.31-13.93-1.34 0.41-29.22 11.04-61.97 23.61l-59.54 22.87-13.11-1.9c-7.21-1.05-23.14-3.66-35.392-5.81-12.254-2.14-24.112-3.46-26.351-2.92-3.63 0.87-3.948 1.52-2.934 5.96 1.295 5.66 56.697 177.41 62.497 193.77 3.6 10.11 4.3 10.97 12.58 15.42l8.78 4.72-5.48-6.06c-8.72-9.63-14.73-24.89-23.52-59.69-7.83-30.97-4.35-42 10.92-34.61 13.36 6.46 22.9 20.62 32.55 48.31 8.51 24.42 16.28 54.7 14.91 58.11-0.6 1.51-2.88 2.6-5.52 2.65-3.67 0.06-2.29 1.17 7.62 6.12 15 7.48 18.56 7.89 16.98 1.93zm-62.99-144.59c-22.1-4.85-38.547-12.03-41.935-18.31-2.535-4.7-1.867-9.37 1.339-9.37 6.081 0 45.646 12.16 40.096 12.32-1.2 0.04-1.61 0.85-0.95 1.88 0.79 1.21 0.29 1.48-1.5 0.82-5.87-2.16-29.58-8.67-33.229-9.12-5.11-0.64-6.009 2.36-1.83 6.09 3.339 2.99 33.739 12.87 39.389 12.81 2.38-0.02 2.8-0.82 2-3.86-0.9-3.45-0.64-3.7 2.65-2.53 2.61 0.93 3.65 2.54 3.65 5.64 0 5.1-1.08 5.51-9.68 3.63zm-24.42-38.44c-9.881-2.43-19.47-5.19-21.312-6.13-7.366-3.78-11.21-14.68-5.871-16.65 3.147-1.15 19.293 1.69 33.373 5.88 8.96 2.67 10.46 3.58 8.7 5.27s-4.74 1.4-17.29-1.69c-17.005-4.19-24.052-4.74-24.015-1.86 0.069 5.41 6.939 8.76 27.845 13.56 17.28 3.98 17.89 3.95 16.94-0.79-0.77-3.87 0.93-5.25 2.83-2.29 0.56 0.86 1.64 1.2 2.41 0.75 1.74-1.03 3.79 4.84 2.43 6.95-1.54 2.38-6.47 1.82-26.04-3zm57.9 157.53c1.85-5.33-11.88-49.31-17.71-56.73-5.3-6.74-17.57-14.17-23.41-14.17-7.43 0-7.93 4.55-2.6 23.65 8.86 31.72 12.13 37.08 27.19 44.57 9.54 4.74 15.48 5.71 16.53 2.68z"/>
    <path id="path1338" fill="#707071" d="m373.44 636.9c-19.61-2.69-40.3-13.27-48.12-24.61-8.06-11.69-6.51-27.84 3.73-38.7l5.73-6.09-4.61-1.71c-13-4.83-51.94-18.46-52.73-18.46-0.5 0-18.16 14.3-39.25 31.78-21.08 17.49-39.94 32.17-41.89 32.64-2.48 0.6-13.46-3.96-36.43-15.13l-32.89-16-3.53-10.06c-12.75-36.34-63.473-197.03-63.473-201.08 0-5.99-6.68-3.22 66.193-27.38 31.53-10.46 67.13-22.3 79.11-26.32l21.8-7.32 36.98 2.45c20.33 1.34 37.68 3.11 38.53 3.94 0.86 0.82 2.52 10.34 3.7 21.14 1.17 10.81 2.44 19.95 2.83 20.32 0.38 0.36 39.11 5.16 86.06 10.65 125.91 14.73 126.27 14.79 136.43 21.31 8.74 5.61 11.39 14.99 10.36 36.72-1.43 30.36-18.47 134.65-26.76 163.87-8.7 30.65-16.97 34.66-49.83 24.19-17.59-5.6-18.37-5.71-20.02-2.89-0.95 1.62-4.87 6.17-8.71 10.12-8.49 8.7-21.64 14.68-36.95 16.8-12.57 1.74-12.24 1.75-26.26-0.18zm27.52-3.02c16.22-3.25 31.27-12.53 38.58-23.79l2.99-4.6-18.81-6.63c-20.78-7.32-21.44-7.46-21.52-4.69-0.08 2.73-5.72 8.9-8.14 8.9-1.12 0-9.83-2.87-19.37-6.37l-17.35-6.38-2.99-8.57c-2.63-7.51-3.74-8.82-8.93-10.55-5.9-1.95-5.98-1.92-12.39 4.75-16.09 16.73-10.56 35.99 13.9 48.44 18.36 9.34 37.77 12.75 54.03 9.49zm100.1-24.54c2.39-2.52 5.87-9.3 7.73-15.07 7.22-22.42 26.93-138.35 28.57-168.06 1.55-28.11-2.65-35.47-23.15-40.57-10.68-2.65-229.02-28.78-240.52-28.78-15.33 0-16.16 5.17-13.57 84.39 2.79 85.63 3.79 92.99 13.4 99 7.62 4.77 196.54 71.58 209.66 74.15 7.09 1.38 13.47-0.42 17.88-5.06zm-45.53-34.27c-12.43-1.93-151.33-44.49-161.62-49.51-7.04-3.44-8.98-7.8-10.3-23.14-1.75-20.24-1.32-99.52 0.55-104.1 0.96-2.32 3.4-4.61 5.42-5.09 4.33-1.03 104.94 16.77 140.6 24.86 31.16 7.08 50.94 12.52 53.79 14.79 1.42 1.13 2.24 4.96 2.24 10.5 0 17.87-14.04 124.21-17.01 128.81-1.92 2.99-6.63 3.98-13.67 2.88zm-193.4-22.18c8.49-7.08 8.98-7.84 6.26-9.67-8.83-5.93-10.9-25.34-12.52-117.48-0.96-54.09-0.81-59.34 1.78-64.58 3.99-8.07 9.49-9.49 29.35-7.54 8.71 0.86 16.03 1.36 16.28 1.12 0.89-0.85-3.22-34.83-4.44-36.72-0.95-1.49-3.89-1.03-12.69 1.98-6.29 2.15-11.44 3.68-11.44 3.4s2-1.61 4.44-2.96c4.24-2.34 3.87-2.41-8.48-1.52-7.1 0.51-31.54 3.32-54.3 6.24l-41.39 5.32-46.61 15.38c-60.285 19.89-65.164 21.69-65.164 23.96 0 2.59 62.134 195.42 65.304 202.66 2.03 4.64 4.54 6.76 12.61 10.66l10.08 4.87-6.61-6.17c-6.15-5.74-16.93-26.17-16.73-31.7 0.04-1.12 1.47 1.38 3.17 5.56 3.95 9.7 10.01 15.85 20.17 20.46 8.5 3.85 14.51 4.68 16.1 2.2 1.02-1.58-3.34-19.29-9.76-39.67-2.7-8.56-5.79-14.58-9.76-19.03-9.66-10.82-24.29-16.02-27.86-9.9-2.36 4.04-3.41 1.9-4.47-9.06-0.83-8.52-0.5-10.43 2.36-13.77l3.32-3.87 8.68 4.3c8.99 4.45 17.26 13.34 23.53 25.28 7.63 14.55 22.45 62.73 23.29 75.72l0.4 6.2-6.46-0.21c-6.16-0.2-5.76 0.12 8.83 7.15l15.29 7.37 29.11-24.14c16.01-13.28 33.26-27.61 38.33-31.84zm-143.9-35.63c-0.07-1.63 0.31-2.55 0.85-2.03 0.53 0.51 0.59 1.85 0.12 2.96-0.51 1.24-0.9 0.87-0.97-0.93zm2.82-62.05c-13.6-4-27.168-9.4-27.168-10.81 0-0.5 1.998 0.07 4.44 1.27 6.018 2.95 31.538 10.29 35.748 10.29 2.02 0 3.4-0.99 3.4-2.43 0-3.79 5.58-1.93 6.17 2.06 0.45 3.01-0.19 3.46-4.84 3.37-2.95-0.06-10.94-1.74-17.75-3.75zm-11.02-15.55c-15.619-4.64-18.392-4.76-17.294-0.73 0.465 1.71 0.186 2.71-0.619 2.23-0.805-0.47-1.464-2.93-1.464-5.45 0-5.23-0.167-5.24 20.177 0.56 6.22 1.78 11.82 3.11 12.46 2.96 0.63-0.15 0.74 0.77 0.23 2.04s-1.03 2.23-1.15 2.14c-0.13-0.09-5.68-1.78-12.34-3.75zm15.34-15.63c-10.59-2.17-29.835-7.33-29.284-7.86 0.358-0.35 6.484 0.8 13.624 2.55 16.14 3.95 18.08 3.96 18.08 0.11 0-2.72 0.46-2.86 4.1-1.27 7.79 3.4 2.78 8.37-6.52 6.47zm-36.331-9.88c-1.332-0.82-1.696-1.5-0.808-1.5s2.705 0.68 4.037 1.5c1.332 0.83 1.695 1.5 0.807 1.5s-2.705-0.67-4.036-1.5zm-8.761-8.98c-0.709-2.11-0.426-4.44 0.695-5.74 2.047-2.36 4.401-2.17 23.847 1.97 9.37 1.99 11.33 2.88 9.69 4.4-1.63 1.51-4.8 1.33-15.211-0.87-13.39-2.83-15.621-2.63-17.031 1.48-0.581 1.69-1.119 1.36-1.99-1.24z"/>
    <path id="path1336" fill="#2b2bb0" d="m363.95 634.84c-27.1-7.25-44.09-22.81-43.99-40.28 0.03-6.01 5.45-17.43 10.83-22.83 2.32-2.33 3.92-4.47 3.54-4.75-2.13-1.58-56.5-19.87-57.74-19.42-0.82 0.3-18.3 14.48-38.84 31.51-20.54 17.04-38.87 31.64-40.73 32.45-2.77 1.2-9.47-1.49-36.59-14.71l-33.2-16.19-3.02-8.52c-10.32-29.05-64.233-199.43-64.233-202.97 0-3.82 1.043-4.68 9.284-7.66 13.23-4.77 148.68-49.64 155.08-51.37 5.78-1.56 76.03 2.71 78.23 4.76 0.67 0.62 2.08 10.29 3.14 21.48l1.92 20.35 5.74 0.87c3.16 0.48 47.37 5.75 98.26 11.7 50.88 5.95 97.58 11.93 103.77 13.28 11.26 2.46 19.18 7.13 22.66 13.36 3.36 6.02 4.52 21.79 2.87 39.07-3.44 36.1-19.23 129.52-25.8 152.62-9.27 32.64-16.09 35.83-52.14 24.43l-15.96-5.05-2.61 3.85c-6.06 8.93-14.11 15.76-24.14 20.5-9.97 4.71-11.94 5.07-29.29 5.41-12.44 0.24-21.4-0.38-27.04-1.89zm50.24-4.39c4.95-2.18 11.48-5.76 14.5-7.97 5.74-4.2 14.98-15.82 13.62-17.12-0.43-0.42-9.44-3.8-20-7.53l-19.22-6.77-1.79 4.07c-3.72 8.49-5.13 8.56-25.07 1.18l-18.37-6.8-0.48-7.67-0.48-7.67-8.94-2.7c-8.59-2.6-9.08-2.59-12.23 0.13-5.84 5.04-12.56 17.96-12.57 24.2-0.02 7.85 3.2 13.38 12.24 21.01 20.76 17.53 56.03 23.63 78.79 13.64zm86.4-19.97c6.75-6.62 11.63-21.84 18.66-58.19 12.99-67.07 21.44-130.14 19.3-143.87-1.27-8.13-6.24-15.6-12.79-19.24-2.66-1.48-10.65-3.78-17.75-5.12-18.37-3.45-222.26-27.2-233.54-27.2-13.57 0-14.93 2.47-15.69 28.57-0.7 24.19 2.62 119.22 4.73 135.45 2.43 18.6 2.1 18.36 45.26 33.47 12.96 4.54 31.12 11.16 40.36 14.7 9.24 3.55 32.05 11.68 50.7 18.07 93.67 32.08 92.22 31.74 100.76 23.36zm-45.06-35.41c-8.68-1.35-69.75-19.65-123.51-37.02-26.88-8.69-39.95-13.67-42.69-16.28-3.05-2.91-4.23-6.15-5.17-14.27-1.79-15.51-1.65-104.85 0.18-109.46 0.85-2.16 3.22-4.33 5.24-4.81 7.56-1.8 140.03 23.53 178.65 34.16 19.05 5.24 18.6 4.65 17.29 22.95-2.06 28.63-12.19 104.91-15.61 117.48-1.94 7.14-5.04 8.7-14.38 7.25zm-219.82 0.97l37.36-30.91-4.86-4.81c-2.67-2.64-5.53-7.05-6.35-9.8-2.17-7.27-5.03-71.73-5.4-121.79-0.43-57.82-1.3-56.28 30.95-54.28l17.34 1.08-1.89-18.02c-1.03-9.91-2.66-18.76-3.61-19.68-0.95-0.91-16.98-2.7-35.62-3.98l-33.9-2.32-80.44 26.7c-44.24 14.69-81.704 27.35-83.258 28.14s-2.826 2.79-2.826 4.44c0 2.76 45.854 147.24 59.214 186.58 3.18 9.37 6.9 18.26 8.26 19.76 3.97 4.37 63.17 32.35 65.57 30.99 1.15-0.66 18.91-15.1 39.46-32.1z"/>
    <path id="path1334" fill="#1919a4" d="m363.95 634.84c-27.1-7.25-44.09-22.81-43.99-40.28 0.03-6.01 5.45-17.43 10.83-22.83 2.32-2.33 3.92-4.47 3.54-4.75-2.13-1.58-56.5-19.87-57.74-19.42-0.82 0.3-18.3 14.48-38.84 31.51-20.54 17.04-38.87 31.64-40.73 32.45-2.77 1.2-9.47-1.49-36.59-14.71l-33.2-16.19-3.02-8.52c-10.32-29.05-64.233-199.43-64.233-202.97 0-3.82 1.043-4.68 9.284-7.66 13.23-4.77 148.68-49.64 155.08-51.37 5.78-1.56 76.03 2.71 78.23 4.76 0.67 0.62 2.08 10.29 3.14 21.48l1.92 20.35 5.74 0.87c3.16 0.48 47.37 5.75 98.26 11.7 50.88 5.95 97.58 11.93 103.77 13.28 11.26 2.46 19.18 7.13 22.66 13.36 3.36 6.02 4.52 21.79 2.87 39.07-3.44 36.1-19.23 129.52-25.8 152.62-9.27 32.64-16.09 35.83-52.14 24.43l-15.96-5.05-2.61 3.85c-6.06 8.93-14.11 15.76-24.14 20.5-9.97 4.71-11.94 5.07-29.29 5.41-12.44 0.24-21.4-0.38-27.04-1.89zm50.24-4.39c4.95-2.18 11.48-5.76 14.5-7.97 5.74-4.2 14.98-15.82 13.62-17.12-0.43-0.42-9.44-3.8-20-7.53l-19.22-6.77-1.79 4.07c-3.72 8.49-5.13 8.56-25.07 1.18l-18.37-6.8-0.48-7.67-0.48-7.67-8.94-2.7c-8.59-2.6-9.08-2.59-12.23 0.13-5.84 5.04-12.56 17.96-12.57 24.2-0.02 7.85 3.2 13.38 12.24 21.01 20.76 17.53 56.03 23.63 78.79 13.64zm86.4-19.97c6.75-6.62 11.63-21.84 18.66-58.19 12.99-67.07 21.44-130.14 19.3-143.87-1.27-8.13-6.24-15.6-12.79-19.24-2.66-1.48-10.65-3.78-17.75-5.12-18.37-3.45-222.26-27.2-233.54-27.2-13.57 0-14.93 2.47-15.69 28.57-0.7 24.19 2.62 119.22 4.73 135.45 2.43 18.6 2.1 18.36 45.26 33.47 12.96 4.54 31.12 11.16 40.36 14.7 9.24 3.55 32.05 11.68 50.7 18.07 93.67 32.08 92.22 31.74 100.76 23.36zm-60.39-50.7c-45.52-11.43-137.1-38.83-146.86-43.95-3.79-1.98-6.84-4.92-7.5-7.22-2.09-7.22-1.64-96.75 0.49-98.79 1.07-1.03 4.18-1.86 6.91-1.86 4.25 0 77.78 15.73 94.48 20.21 7.75 2.08 33.44 23.89 49.23 41.81 20.14 22.83 30.64 32.66 33.7 31.53 3.29-1.21 6.52-12 9.91-33.12 2.58-16.07 4.03-21.06 4.03-13.84 0 13.04-12.36 102.76-14.76 107.1-2.1 3.8-8.69 3.38-29.63-1.87zm-204.49 16.26l37.36-30.91-4.86-4.81c-2.67-2.64-5.53-7.05-6.35-9.8-2.17-7.27-5.03-71.73-5.4-121.79-0.43-57.82-1.3-56.28 30.95-54.28l17.34 1.08-1.89-18.02c-1.03-9.91-2.66-18.76-3.61-19.68-0.95-0.91-16.98-2.7-35.62-3.98l-33.9-2.32-80.44 26.7c-44.24 14.69-81.704 27.35-83.258 28.14s-2.826 2.79-2.826 4.44c0 2.76 45.854 147.24 59.214 186.58 3.18 9.37 6.9 18.26 8.26 19.76 3.97 4.37 63.17 32.35 65.57 30.99 1.15-0.66 18.91-15.1 39.46-32.1z"/>
    <path id="path1332" fill="#0c0c95" d="m363.95 634.84c-27.1-7.25-44.09-22.81-43.99-40.28 0.03-6.01 5.45-17.43 10.83-22.83 2.32-2.33 3.92-4.47 3.54-4.75-2.13-1.58-56.5-19.87-57.74-19.42-0.82 0.3-18.3 14.48-38.84 31.51-20.54 17.04-38.87 31.64-40.73 32.45-2.77 1.2-9.47-1.49-36.59-14.71l-33.2-16.19-3.02-8.52c-10.32-29.05-64.233-199.43-64.233-202.97 0-3.82 1.043-4.68 9.284-7.66 13.23-4.77 148.68-49.64 155.08-51.37 5.78-1.56 76.03 2.71 78.23 4.76 0.67 0.62 2.08 10.29 3.14 21.48l1.92 20.35 5.74 0.87c3.16 0.48 47.37 5.75 98.26 11.7 50.88 5.95 97.58 11.93 103.77 13.28 11.26 2.46 19.18 7.13 22.66 13.36 3.36 6.02 4.52 21.79 2.87 39.07-3.44 36.1-19.23 129.52-25.8 152.62-9.27 32.64-16.09 35.83-52.14 24.43l-15.96-5.05-2.61 3.85c-6.06 8.93-14.11 15.76-24.14 20.5-9.97 4.71-11.94 5.07-29.29 5.41-12.44 0.24-21.4-0.38-27.04-1.89zm50.24-4.39c4.95-2.18 11.48-5.76 14.5-7.97 5.74-4.2 14.98-15.82 13.62-17.12-0.43-0.42-9.44-3.8-20-7.53l-19.22-6.77-1.79 4.07c-3.72 8.49-5.13 8.56-25.07 1.18l-18.37-6.8-0.48-7.67-0.48-7.67-8.94-2.7c-8.59-2.6-9.08-2.59-12.23 0.13-5.84 5.04-12.56 17.96-12.57 24.2-0.02 7.85 3.2 13.38 12.24 21.01 20.76 17.53 56.03 23.63 78.79 13.64zm86.4-19.97c6.75-6.62 11.63-21.84 18.66-58.19 12.99-67.07 21.44-130.14 19.3-143.87-1.27-8.13-6.24-15.6-12.79-19.24-2.66-1.48-10.65-3.78-17.75-5.12-18.37-3.45-222.26-27.2-233.54-27.2-13.57 0-14.93 2.47-15.69 28.57-0.7 24.19 2.62 119.22 4.73 135.45 2.43 18.6 2.1 18.36 45.26 33.47 12.96 4.54 31.12 11.16 40.36 14.7 9.24 3.55 32.05 11.68 50.7 18.07 93.67 32.08 92.22 31.74 100.76 23.36zm-44.25-51.84c-48-10.63-150.17-39.36-163.49-45.97-7.87-3.9-8.82-9.43-8.2-47.78 0.72-43.75-0.31-42.44 23.78-30.21 9.62 4.89 28.1 13.33 41.07 18.77 42.12 17.63 57.09 28.81 87.63 65.46 10.19 12.23 20.33 23.36 22.51 24.73 7.61 4.78 9.75 0.45 16.17-32.7 3.17-16.39 3.74-18.12 3.06-9.3-0.98 12.64-6.81 52.22-8.2 55.7-0.93 2.33-7.13 2.9-14.33 1.3zm23.79-73.25c0-2.99 0.33-4.21 0.73-2.71 0.41 1.49 0.41 3.92 0 5.42-0.4 1.49-0.73 0.27-0.73-2.71zm1.55-13.17c-0.03-2.55 0.3-3.79 0.74-2.74 0.45 1.05 0.47 3.14 0.06 4.65-0.4 1.51-0.77 0.65-0.8-1.91zm-245.97 103.82l37.36-30.91-4.86-4.81c-2.67-2.64-5.53-7.05-6.35-9.8-2.17-7.27-5.03-71.73-5.4-121.79-0.43-57.82-1.3-56.28 30.95-54.28l17.34 1.08-1.89-18.02c-1.03-9.91-2.66-18.76-3.61-19.68-0.95-0.91-16.98-2.7-35.62-3.98l-33.9-2.32-80.44 26.7c-44.24 14.69-81.704 27.35-83.258 28.14s-2.826 2.79-2.826 4.44c0 2.76 45.854 147.24 59.214 186.58 3.18 9.37 6.9 18.26 8.26 19.76 3.97 4.37 63.17 32.35 65.57 30.99 1.15-0.66 18.91-15.1 39.46-32.1z"/>
    <path id="path1330" fill="#030303" d="m363.95 634.84c-27.1-7.25-44.09-22.81-43.99-40.28 0.03-6.01 5.45-17.43 10.83-22.83 2.32-2.33 3.92-4.47 3.54-4.75-2.13-1.58-56.5-19.87-57.74-19.42-0.82 0.3-18.3 14.48-38.84 31.51-20.54 17.04-38.87 31.64-40.73 32.45-2.77 1.2-9.47-1.49-36.59-14.71l-33.2-16.19-3.02-8.52c-10.32-29.05-64.233-199.43-64.233-202.97 0-3.82 1.043-4.68 9.284-7.66 13.23-4.77 148.68-49.64 155.08-51.37 5.78-1.56 76.03 2.71 78.23 4.76 0.67 0.62 2.08 10.29 3.14 21.48l1.92 20.35 5.74 0.87c3.16 0.48 47.37 5.75 98.26 11.7 50.88 5.95 97.58 11.93 103.77 13.28 11.26 2.46 19.18 7.13 22.66 13.36 3.36 6.02 4.52 21.79 2.87 39.07-3.44 36.1-19.23 129.52-25.8 152.62-9.27 32.64-16.09 35.83-52.14 24.43l-15.96-5.05-2.61 3.85c-6.06 8.93-14.11 15.76-24.14 20.5-9.97 4.71-11.94 5.07-29.29 5.41-12.44 0.24-21.4-0.38-27.04-1.89zm50.24-4.39c4.95-2.18 11.48-5.76 14.5-7.97 5.74-4.2 14.98-15.82 13.62-17.12-0.43-0.42-9.44-3.8-20-7.53l-19.22-6.77-1.79 4.07c-3.72 8.49-5.13 8.56-25.07 1.18l-18.37-6.8-0.48-7.67-0.48-7.67-8.94-2.7c-8.59-2.6-9.08-2.59-12.23 0.13-5.84 5.04-12.56 17.96-12.57 24.2-0.02 7.85 3.2 13.38 12.24 21.01 20.76 17.53 56.03 23.63 78.79 13.64zm86.4-19.97c6.75-6.62 11.63-21.84 18.66-58.19 12.99-67.07 21.44-130.14 19.3-143.87-1.27-8.13-6.24-15.6-12.79-19.24-2.66-1.48-10.65-3.78-17.75-5.12-18.37-3.45-222.26-27.2-233.54-27.2-13.57 0-14.93 2.47-15.69 28.57-0.7 24.19 2.62 119.22 4.73 135.45 2.43 18.6 2.1 18.36 45.26 33.47 12.96 4.54 31.12 11.16 40.36 14.7 9.24 3.55 32.05 11.68 50.7 18.07 93.67 32.08 92.22 31.74 100.76 23.36zm-264.88-34.44l37.36-30.91-4.86-4.81c-2.67-2.64-5.53-7.05-6.35-9.8-2.17-7.27-5.03-71.73-5.4-121.79-0.43-57.82-1.3-56.28 30.95-54.28l17.34 1.08-1.89-18.02c-1.03-9.91-2.66-18.76-3.61-19.68-0.95-0.91-16.98-2.7-35.62-3.98l-33.9-2.32-80.44 26.7c-44.24 14.69-81.704 27.35-83.258 28.14s-2.826 2.79-2.826 4.44c0 2.76 45.854 147.24 59.214 186.58 3.18 9.37 6.9 18.26 8.26 19.76 3.97 4.37 63.17 32.35 65.57 30.99 1.15-0.66 18.91-15.1 39.46-32.1z"/>
  </g>
  <metadata>
    <rdf:RDF>
      <cc:Work>
        <dc:format>image/svg+xml</dc:format>
        <dc:type rdf:resource="http://purl.org/dc/dcmitype/StillImage"/>
        <cc:license rdf:resource="http://creativecommons.org/licenses/publicdomain/"/>
        <dc:publisher>
          <cc:Agent rdf:about="http://openclipart.org/">
            <dc:title>Openclipart</dc:title>
          </cc:Agent>
        </dc:publisher>
        <dc:title>gis-computer</dc:title>
        <dc:date>2008-02-05T04:52:36</dc:date>
        <dc:description>clip art, clipart, computer, computer, hardware, hardware, icon, icon, image, media, png, public domain, svg, </dc:description>
        <dc:source>http://openclipart.org/detail/12789/gis-computer-by-anonymous-12789</dc:source>
        <dc:creator>
          <cc:Agent>
            <dc:title>Anonymous</dc:title>
          </cc:Agent>
        </dc:creator>
        <dc:subject>
          <rdf:Bag>
            <rdf:li>clip art</rdf:li>
            <rdf:li>clipart</rdf:li>
            <rdf:li>computer</rdf:li>
            <rdf:li>hardware</rdf:li>
            <rdf:li>icon</rdf:li>
            <rdf:li>image</rdf:li>
            <rdf:li>media</rdf:li>
            <rdf:li>png</rdf:li>
            <rdf:li>public domain</rdf:li>
            <rdf:li>svg</rdf:li>
          </rdf:Bag>
        </dc:subject>
      </cc:Work>
      <cc:License rdf:about="http://creativecommons.org/licenses/publicdomain/">
        <cc:permits rdf:resource="http://creativecommons.org/ns#Reproduction"/>
        <cc:permits rdf:resource="http://creativecommons.org/ns#Distribution"/>
        <cc:permits rdf:resource="http://creativecommons.org/ns#DerivativeWorks"/>
      </cc:License>
    </rdf:RDF>
  </metadata>
</svg>
